<svg width="18" height="18" viewBox="0 0 18 18" fill="none" xmlns="http://www.w3.org/2000/svg">
<path d="M9 0C13.8789 1.34262e-07 18 4.1211 18 9C18 11.8709 16.5675 14.4704 14.4004 16.1318V16.2002H14.3086C12.8074 17.3207 10.9683 18 9 18C7.0317 18 5.19261 17.3207 3.69141 16.2002H3.59961V16.1318C1.43248 14.4704 7.93468e-08 11.87 0 9C0 4.1211 4.1211 0 9 0ZM8.09961 13.1152C7.48542 13.1164 6.88973 13.327 6.41113 13.7119C5.9324 14.0971 5.59942 14.6344 5.4668 15.2344C6.51795 15.8436 7.72567 16.2002 9 16.2002C10.2743 16.2002 11.482 15.8436 12.5332 15.2344C12.4004 14.6346 12.0674 14.098 11.5889 13.7129C11.1103 13.3279 10.5146 13.1166 9.90039 13.1152H8.09961ZM9 1.7998C5.0967 1.7998 1.7998 5.0967 1.7998 9C1.7998 10.9584 2.63087 12.764 3.95117 14.0771C4.29447 13.2598 4.87138 12.5615 5.60938 12.0703C6.34719 11.5794 7.21339 11.3166 8.09961 11.3154H9.90039C10.7866 11.3166 11.6528 11.5794 12.3906 12.0703C13.1286 12.5615 13.7055 13.2598 14.0488 14.0771C15.3691 12.764 16.2002 10.9584 16.2002 9C16.2002 5.0967 12.9033 1.7998 9 1.7998ZM9 3.59961C11.052 3.59961 12.5996 5.1482 12.5996 7.2002C12.5995 9.2521 11.0519 10.7998 9 10.7998C6.94807 10.7998 5.40049 9.2521 5.40039 7.2002C5.40039 5.1482 6.94801 3.59962 9 3.59961ZM9 5.40039C7.93981 5.4004 7.2002 6.14 7.2002 7.2002C7.20028 8.26029 7.93987 8.99999 9 9C10.0601 9 10.7997 8.26029 10.7998 7.2002C10.7998 6.14 10.0602 5.40039 9 5.40039Z" fill="#9B9B9B"/>
</svg>
